# xmcd CD database file
#
# Track frame offsets:
#	150
#	14116
#	27590
#	48006
#	62656
#	78594
#	92620
#	107779
#	121643
#	138080
#	153274
#	165529
#
# Disc length: 2424 seconds
#
# Revision: 0
# Processed by: cddbd v1.5.2PL0 Copyright (c) Steve Scherf et al.
# Submitted via: CDex 1.70beta2
#
DISCID=8e09760c
DTITLE=De La Rhonde, Darrell, and Saskia - Cdn. - SK - Laura's Kitchen
DYEAR=2007
DGENRE=Country
TTITLE0=Prairie Town
TTITLE1=Newlyweds
TTITLE2=Porchlit
TTITLE3=Inside Out
TTITLE4=Louis Reil
TTITLE5=Grateful
TTITLE6=Adeline
TTITLE7=Without Words
TTITLE8=Jersalem
TTITLE9=Laura's Kitchen
TTITLE10=Blow Me Away
TTITLE11=Road Less Traveled
EXTD=YEAR: 2007
EXTT0=
EXTT1=
EXTT2=
EXTT3=
EXTT4=
EXTT5=
EXTT6=
EXTT7=
EXTT8=
EXTT9=
EXTT10=
EXTT11=
PLAYORDER=
